<svg width="88" height="75" viewBox="0 0 88 75" fill="none" xmlns="http://www.w3.org/2000/svg">
<g clip-path="url(#clip0_443_199)">
<path d="M35.2966 26.0085C35.3993 26.4052 35.7189 26.7307 36.1527 26.8731C36.5865 27.0053 37.0774 26.9341 37.4199 26.6798L40.9359 24.2081V39.476H36.5409C36.187 39.476 35.8445 39.598 35.6048 39.8218C35.3536 40.0456 35.2167 40.3508 35.2167 40.6661V44.5009C35.2167 44.8162 35.3536 45.1213 35.6048 45.3349C35.8559 45.5587 36.1984 45.691 36.5523 45.691H54.6117C54.977 45.691 55.3081 45.5689 55.5478 45.3451C55.7989 45.1213 55.9473 44.8264 55.9473 44.5009V40.6661C55.9473 40.3508 55.8103 40.0456 55.5592 39.832C55.3081 39.6082 54.977 39.476 54.6117 39.476H50.2395V16.4063C50.2395 16.091 50.1026 15.7858 49.8514 15.5722C49.6003 15.3484 49.2692 15.2162 48.9039 15.2162H43.2304C42.9564 15.2162 42.6938 15.2874 42.477 15.4298L34.7372 20.2004C34.292 20.475 34.0751 20.9633 34.1893 21.4312L35.3194 26.0085H35.2966ZM43.2532 16.5385H48.7327V40.7983H54.4405V44.3686H36.6893V40.7983H42.4199V21.482L36.7007 25.5202L35.6504 21.2379L43.2646 16.5385H43.2532Z" fill="#DD5928"/>
<path d="M0.0686311 61.2641C0.228449 61.6913 0.673656 61.9964 1.17594 62.0371L12.4659 62.8509L12.8198 72.1886C12.8312 72.6362 13.1395 73.0227 13.5961 73.1956C13.7559 73.2566 13.9271 73.2871 14.0984 73.2871C14.4066 73.2871 14.7148 73.1854 14.9545 72.9922L35.9706 56.1069L36.9752 58.5685C37.466 59.7688 38.4592 60.491 39.6464 60.491C40.5254 60.491 41.3816 60.0841 42.0551 59.3416L45.788 55.2729C46.0962 54.9372 46.5528 54.7439 47.0209 54.7439C47.2948 54.7439 47.7172 54.8049 48.0939 55.1203L52.4661 58.6601C53.151 59.2093 53.9159 59.5043 54.6693 59.5043C55.183 59.5043 55.7538 59.3619 56.2332 59.0161L71.4388 74.0399C71.6899 74.284 72.0324 74.4162 72.3863 74.4162C72.5118 74.4162 72.6488 74.3959 72.7744 74.3654C73.2539 74.2331 73.5963 73.8568 73.6534 73.4092L74.852 64.2749L86.1078 63.3493C86.5872 63.3086 87.0096 63.0339 87.1809 62.6271C87.3521 62.2202 87.2608 61.7726 86.9411 61.4471L68.2538 42.9751C68.2538 42.9751 68.2881 42.8937 68.3223 42.8531C68.5392 42.5174 68.9045 42.2834 69.3497 42.1919L75.0918 41.0018C76.3132 40.7475 77.1808 40.1067 77.4662 39.2319C77.7516 38.3571 77.432 37.401 76.5644 36.5974L72.4776 32.8033C72.1694 32.5083 72.0096 32.1421 72.021 31.7454C72.0438 31.3589 72.2379 31.0029 72.5803 30.7384L77.0438 27.3003C77.9913 26.568 78.4137 25.6423 78.2196 24.7574C78.0256 23.8623 77.2265 23.1502 76.0393 22.8044L70.4456 21.1362C70.0118 21.004 69.6808 20.7395 69.4867 20.3937C69.3041 20.0377 69.2927 19.641 69.4639 19.2646L71.6214 14.372C72.0552 13.3955 71.9867 12.4698 71.4502 11.768C70.8338 10.9644 69.7721 10.5982 68.3794 10.7915L62.5575 11.6357C61.6214 11.768 60.8109 11.1983 60.7081 10.3846L60.0689 5.15629C59.8634 3.43725 58.5734 2.66419 57.3748 2.66419C56.7013 2.66419 55.9935 2.89814 55.3428 3.33553L50.6282 6.4888C49.8976 6.97704 48.8474 6.8143 48.3337 6.14295L45.046 1.77924C44.3839 0.904467 43.4935 0.426392 42.5346 0.426392C41.4387 0.426392 40.4798 1.04687 39.909 2.12509L37.3747 6.87533C36.9866 7.6077 35.982 7.90268 35.1715 7.51615L29.9774 5.01388C28.6532 4.37306 27.2605 4.49512 26.4044 5.27835C26.0162 5.64454 25.5482 6.31588 25.6053 7.43478L25.845 12.6834C25.8678 13.0801 25.708 13.4565 25.4112 13.7311C25.1144 14.0058 24.7034 14.1583 24.2354 14.1583L18.2765 14.0973C17.0436 14.0973 16.0618 14.5449 15.5596 15.3179C15.0573 16.1012 15.1144 17.098 15.7422 18.0542L18.6874 22.6111C18.9157 22.957 18.9728 23.3537 18.8472 23.73C18.7217 24.1064 18.4363 24.4115 18.0253 24.5946L12.7742 26.9748C11.6554 27.4834 10.9933 28.287 10.9477 29.2025C10.902 30.1078 11.4842 30.9724 12.5344 31.5623L17.523 34.3799C17.8998 34.5935 18.1623 34.919 18.2422 35.3056C18.3221 35.6921 18.2422 36.0786 17.9682 36.4143L14.555 40.7068C13.8358 41.6223 13.6646 42.6089 14.0984 43.4328C14.5322 44.2568 15.4911 44.7755 16.7354 44.8671L19.1098 45.04L0.422514 60.0536C0.0458 60.3588 -0.0911869 60.8368 0.0686311 61.2641ZM68.6648 52.2213C68.7447 52.1501 68.8246 52.0687 68.8931 51.9874C69.11 51.8551 69.3041 51.7025 69.4753 51.5093C70.0233 50.8583 70.1488 49.9733 69.8406 49.0172L69.3155 47.3897L83.368 61.2742L73.6191 62.0778C73.0141 62.1287 72.5347 62.5457 72.4662 63.0848L71.473 70.6425L57.489 56.819L58.5734 52.0789C58.6077 51.906 58.6876 51.7534 58.7903 51.611C59.1328 51.4482 59.5323 51.4076 59.9205 51.4991L65.6283 52.8214C66.8497 53.1063 67.957 52.8926 68.6762 52.2315L68.6648 52.2213ZM16.9523 42.6293C16.5641 42.5988 16.4043 42.497 16.3815 42.4767C16.3815 42.4767 16.3815 42.4564 16.3815 42.4258C16.3815 42.3546 16.4386 42.2021 16.6098 41.9783L20.0231 37.6858C20.1829 37.4722 20.3313 37.2586 20.434 37.0348C20.7765 36.3533 20.8678 35.6005 20.708 34.858C20.4911 33.8713 19.829 33.0271 18.8701 32.4778L13.8815 29.6602C13.7217 29.5687 13.6189 29.4873 13.5504 29.4161C13.4819 29.3551 13.4591 29.3042 13.4591 29.294C13.4591 29.2635 13.5733 29.1109 13.9271 28.9583L16.6326 27.7276L19.1897 26.568C20.2171 26.1001 20.9591 25.3168 21.2788 24.3505C21.587 23.4249 21.4728 22.4586 20.9591 21.6041C20.9363 21.5634 20.9135 21.5227 20.8906 21.4821L17.9454 16.9251C17.797 16.6911 17.7628 16.5386 17.7628 16.4674C17.7628 16.447 17.7628 16.4267 17.7628 16.4267C17.7628 16.4267 17.7856 16.4063 17.8198 16.3962C17.8998 16.3656 18.0596 16.3148 18.345 16.3148L19.8632 16.3351L24.2925 16.386C25.434 16.386 26.4843 15.9893 27.2605 15.2671C27.6487 14.9111 27.9455 14.4838 28.1395 14.0363C28.1624 13.9956 28.1624 13.9447 28.1738 13.9041C28.3336 13.487 28.4135 13.0394 28.3907 12.5817L28.1509 7.33306C28.1395 6.97704 28.2308 6.82447 28.3108 6.80412C28.3678 6.80412 28.5505 6.8143 28.8359 6.9567L33.0939 9.01141L34.0185 9.45897C34.0756 9.48948 34.1441 9.50983 34.2126 9.54034C34.772 9.77429 35.377 9.90653 35.982 9.90653C37.0437 9.90653 38.0254 9.54034 38.7674 8.91986C39.1327 8.61471 39.4409 8.24852 39.6692 7.82131L42.2035 3.07106C42.2492 2.97952 42.2948 2.90832 42.3405 2.84729C42.4204 2.74557 42.4889 2.68454 42.5231 2.66419C42.5346 2.66419 42.546 2.64385 42.5574 2.64385C42.5688 2.64385 42.6031 2.66419 42.6487 2.68454C42.6715 2.69471 42.6944 2.71505 42.7286 2.73539C42.7971 2.79643 42.8884 2.8778 42.9912 3.01003L45.2286 5.97003L46.2903 7.37375C46.5414 7.70942 46.8611 8.0044 47.2149 8.23835C47.9227 8.71643 48.7789 8.99106 49.6921 8.99106C49.9547 8.99106 50.2172 8.96055 50.4798 8.91986C51.0848 8.81814 51.6556 8.59436 52.1693 8.25869L54.0985 6.96687L56.8839 5.10543C57.1465 4.93251 57.3063 4.89182 57.3862 4.88165C57.3976 4.88165 57.4205 4.88165 57.4319 4.88165C57.4661 4.90199 57.5803 5.03423 57.6259 5.39024L58.2652 10.6186C58.3565 11.3916 58.7218 12.0833 59.247 12.6326C59.441 12.836 59.6693 13.0191 59.9205 13.1717C60.7652 13.721 61.8497 13.9956 63.0027 13.8329L68.8246 12.9886C69.1442 12.9377 69.3954 12.9988 69.4182 13.0089C69.4182 13.0089 69.4182 13.0293 69.4182 13.0496C69.4296 13.1208 69.4182 13.2734 69.3155 13.5379L67.1579 18.4305C67.1009 18.5526 67.0666 18.6645 67.021 18.7865C67.021 18.817 67.0095 18.8374 66.9981 18.8679C66.8041 19.5392 66.8269 20.2411 67.0666 20.8921C67.1237 21.0345 67.1808 21.1769 67.2493 21.3193C67.3406 21.4922 67.4547 21.6448 67.5689 21.7974C68.0712 22.4687 68.7904 22.9773 69.6694 23.2316L73.8475 24.4726L75.263 24.8998C75.5141 24.971 75.6511 25.0524 75.7196 25.1134C75.7539 25.1439 75.7767 25.1643 75.7767 25.1744C75.7767 25.1948 75.7424 25.2761 75.6397 25.3982C75.5826 25.4592 75.5141 25.5304 75.4114 25.6016L72.6146 27.7581L70.9479 29.0397C70.0803 29.7111 69.578 30.6265 69.521 31.6335C69.4639 32.6405 69.8748 33.5967 70.6739 34.3392L74.7607 38.1333C75.0347 38.3876 75.0689 38.5605 75.0689 38.5809C75.0689 38.5809 75.0575 38.6012 75.0461 38.6114C75.0461 38.6114 75.0461 38.6114 75.0461 38.6216C74.9776 38.6724 74.8292 38.7538 74.5438 38.8148L68.8018 40.0151C67.6831 40.2491 66.7584 40.8492 66.1876 41.724C66.062 41.9172 65.9593 42.1207 65.8794 42.3241C65.8794 42.3241 65.8794 42.3343 65.8794 42.3445C65.7995 42.5479 65.731 42.7615 65.6967 42.9751C65.1716 43.738 64.9319 44.3585 65.1716 45.0807L66.8155 50.1259L61.1876 48.8239C60.9593 48.7731 60.7196 48.7425 60.4912 48.7222C60.3771 48.7222 60.2515 48.7019 60.1374 48.7019C59.9205 48.7019 59.715 48.7222 59.4981 48.7527C59.4524 48.7527 59.4068 48.7629 59.3611 48.7731C59.1785 48.8036 59.0072 48.8443 58.8246 48.8951C58.7561 48.9155 58.6762 48.946 58.6077 48.9663C58.4935 49.007 58.3908 49.0477 58.288 49.0986C58.1511 49.1596 58.0141 49.2308 57.8885 49.302C57.8428 49.3325 57.7972 49.3529 57.7629 49.3834C57.5689 49.5156 57.3748 49.6478 57.2036 49.8106C56.3132 50.3497 55.6967 51.1533 55.4798 52.1094L54.4638 56.5342C54.4067 56.7681 54.4524 57.0122 54.5552 57.2258C54.5552 57.2258 54.4638 57.1852 54.4182 57.1546C54.4182 57.1546 54.3953 57.1445 54.3839 57.1343C54.3268 57.0936 54.2583 57.0529 54.1784 56.9919L49.8063 53.4521C49.4866 53.1876 49.1099 52.9944 48.7332 52.8316C48.2081 52.618 47.6373 52.4959 47.0437 52.4959C46.3359 52.4959 45.651 52.6689 45.046 52.9638C44.8405 53.0656 44.6464 53.1876 44.4638 53.3199C44.2469 53.4724 44.0528 53.6454 43.8702 53.8488L40.1373 57.9175C40.0916 57.9684 40.0345 58.0192 39.9889 58.0599C39.9318 58.1108 39.8861 58.1515 39.8405 58.1718C39.8405 58.1718 39.8405 58.1718 39.8291 58.1718C39.8291 58.1718 39.8291 58.1718 39.8176 58.1718C39.7492 58.2125 39.6921 58.2328 39.6692 58.2328C39.6692 58.2328 39.6464 58.2227 39.6236 58.2023C39.5551 58.1515 39.4524 58.0294 39.3496 57.7853L37.9912 54.4591C38.3336 54.1438 38.4592 53.686 38.288 53.269L38.1966 53.0452C37.7971 52.0789 37.0094 51.3262 35.9706 50.9193C35.6167 50.7871 35.2514 50.6955 34.8747 50.6548C34.6692 50.5836 34.4409 50.5328 34.224 50.5023C34.224 50.5023 34.2126 50.5023 34.2012 50.5023C33.9729 50.4616 33.7446 50.4412 33.5048 50.4412C33.2309 50.4412 32.9455 50.4616 32.6829 50.5124C32.4089 50.5633 32.1464 50.6345 31.8838 50.7362L26.6669 52.7095C26.6669 52.7095 26.6669 52.6282 26.6783 52.5773L27.466 47.3693C27.6144 46.342 27.3062 45.3452 26.587 44.5619C25.9249 43.8296 24.9774 43.382 23.9272 43.2498C23.7902 43.1989 23.6418 43.1684 23.4934 43.1277C23.2879 43.0768 23.071 43.0362 22.8541 43.026L20.8678 42.8836L16.9751 42.5988L16.9523 42.6293ZM22.1349 45.6808L23.4363 45.5384C23.5505 45.6096 23.6646 45.7012 23.7559 45.8029C24.0299 46.108 24.1441 46.4946 24.087 46.8913L23.3107 52.0992C23.1737 53.0147 23.4021 53.8285 23.9614 54.3981C24.361 54.8049 24.8975 55.0491 25.5139 55.1304C26.2902 55.4865 27.2719 55.4865 28.2651 55.1101L33.6875 53.0554C33.893 52.974 34.1099 52.9333 34.3153 52.9333C34.6007 53.0961 34.8405 53.3402 34.966 53.6454L35.0345 53.8081L15.297 69.6762L15.0002 61.7726C14.9774 61.1929 14.4751 60.7249 13.8244 60.6741L4.34947 59.9926L22.1463 45.691L22.1349 45.6808Z" fill="#DD5928"/>
</g>
<defs>
<clipPath id="clip0_443_199">
<rect width="87.2949" height="74" fill="white" transform="translate(0 0.406006)"/>
</clipPath>
</defs>
</svg>
