<svg width="75" height="75" viewBox="0 0 75 75" fill="none" xmlns="http://www.w3.org/2000/svg">
<path d="M23.8291 31.9365C10.6839 31.9365 0 41.4595 0 53.1663C0 64.8731 10.6839 74.406 23.8291 74.406C34.2109 74.406 43.0713 68.4529 46.3156 60.1664C47.9266 60.2262 49.3922 60.2462 50.6004 60.2462C57.9169 60.2462 74.9329 59.5581 74.9329 53.1663C74.9329 53.1463 74.9329 53.1264 74.9329 53.1064C74.9329 53.0865 74.9329 53.0765 74.9329 53.0566V44.5208C74.9776 44.3314 75 44.1419 75 43.9325C75 43.743 74.9776 43.5635 74.9329 43.384V36.364C74.9776 36.1745 75 35.9751 75 35.7756C75 35.5862 74.9776 35.4067 74.9329 35.2272V27.4094C74.9776 27.2199 75 27.0305 75 26.821C75 26.482 74.9217 26.1729 74.7986 25.8737C74.8769 25.5945 74.9217 25.3053 74.9217 24.9962C74.9217 24.9763 74.9217 24.9563 74.9217 24.9364C74.9217 24.9165 74.9217 24.9065 74.9217 24.8865V16.3508C74.9664 16.1613 74.9888 15.9619 74.9888 15.7624C74.9888 15.573 74.9664 15.3935 74.9217 15.214V7.39617C74.9664 7.20671 74.9888 7.00727 74.9888 6.80784C74.9888 6.45883 74.9105 6.12976 74.7762 5.82064C74.5637 5.16251 74.105 4.61406 73.4897 4.27503C68.5337 0.535638 52.7036 0.406006 50.6004 0.406006C48.4972 0.406006 32.6671 0.535638 27.6887 4.29497C27.0734 4.64398 26.6147 5.18245 26.4021 5.84058C26.2679 6.14971 26.1896 6.47877 26.1896 6.82778C26.1896 7.02722 26.212 7.22665 26.2567 7.41611V15.2339C26.212 15.4134 26.1896 15.5929 26.1896 15.7824C26.1896 15.9818 26.212 16.1812 26.2567 16.3707V24.9065C26.2567 24.9065 26.2567 24.9464 26.2567 24.9663C26.2567 24.9862 26.2567 24.9962 26.2567 25.0162C26.2567 25.3253 26.3126 25.6145 26.3798 25.8937C26.2567 26.1928 26.1896 26.5119 26.1896 26.841C26.1896 27.0404 26.212 27.2399 26.2567 27.4293V32.0562C25.4512 31.9864 24.6345 31.9465 23.8179 31.9465L23.8291 31.9365ZM72.1584 52.9968C72.1584 53.0466 72.1584 53.1064 72.1584 53.1463C72.1584 53.1663 72.1584 53.1962 72.1584 53.2161C72.0242 55.5994 62.403 57.5239 50.6116 57.5239C49.4369 57.5239 48.2958 57.504 47.1659 57.4641C47.4903 56.078 47.6581 54.6421 47.6581 53.1663C47.6581 52.7874 47.6469 52.4184 47.6246 52.0495C48.7209 52.0794 49.739 52.0893 50.6004 52.0893C56.0822 52.0893 67.0234 51.7004 72.1584 48.8086V52.9868V52.9968ZM72.1584 44.8399C72.1584 44.8898 72.1584 44.9496 72.1584 44.9995C72.1584 45.0194 72.1584 45.0393 72.1584 45.0693C72.0242 47.4525 62.403 49.377 50.6116 49.377C49.4705 49.377 48.3517 49.3571 47.2666 49.3172C46.7967 47.0636 45.9464 44.9396 44.7494 42.9951C46.9757 43.1148 49.0342 43.1447 50.6228 43.1447C56.1046 43.1447 67.0458 42.7558 72.1808 39.864V44.8399H72.1584ZM72.1584 24.8267C72.1584 24.8766 72.1584 24.9364 72.1584 24.9763C72.1584 24.9962 72.1584 25.0261 72.1584 25.0461C72.0242 27.4293 62.403 29.3539 50.6116 29.3539C38.8201 29.3539 29.199 27.4293 29.0535 25.0461C29.0535 24.9962 29.0535 24.9563 29.0535 24.9065C29.0535 24.8766 29.0535 24.8466 29.0535 24.8167V19.8409C34.1774 22.7326 45.1186 23.1215 50.6116 23.1215C56.1046 23.1215 67.0346 22.7326 72.1696 19.8508V24.8267H72.1584ZM50.6004 3.53712C62.8393 3.53712 70.4132 5.56138 71.6997 6.82778C70.4244 8.09419 62.8393 10.1184 50.6004 10.1184C38.3614 10.1184 30.7764 8.09419 29.501 6.82778C30.7764 5.56138 38.3614 3.53712 50.6004 3.53712ZM50.6004 13.2496C52.5358 13.2496 66.1396 13.1399 72.1584 10.1783V15.8821C72.1584 15.9319 72.1584 15.9918 72.1584 16.0317C72.1584 16.0516 72.1584 16.0815 72.1584 16.1015C72.0242 18.4847 62.403 20.4092 50.6116 20.4092C38.8201 20.4092 29.199 18.4747 29.0535 16.1015C29.0535 16.0516 29.0535 16.0117 29.0535 15.9718C29.0535 15.9419 29.0535 15.912 29.0535 15.8821V10.1783C35.0612 13.1399 48.665 13.2496 50.6116 13.2496H50.6004ZM50.6004 33.2528C52.5358 33.2528 66.1396 33.1431 72.1584 30.1815V35.8853C72.1584 35.9352 72.1584 35.995 72.1584 36.0349C72.1584 36.0548 72.1584 36.0848 72.1584 36.1047C72.0242 38.4879 62.403 40.4125 50.6116 40.4125C47.7812 40.4125 45.0738 40.3028 42.6014 40.0934C39.2676 36.2942 34.513 33.532 29.0535 32.4451V30.1715C35.0612 33.1331 48.6762 33.2428 50.6116 33.2428L50.6004 33.2528ZM44.604 53.1663C44.604 63.3773 35.2849 71.6837 23.8291 71.6837C12.3732 71.6837 3.05415 63.3773 3.05415 53.1663C3.05415 42.9553 12.3732 34.6488 23.8291 34.6488C35.2849 34.6488 44.604 42.9553 44.604 53.1663Z" fill="#DD5928"/>
<path d="M7.77539 53.1663C7.77539 61.0539 14.98 67.4757 23.8292 67.4757C32.6784 67.4757 39.8831 61.0539 39.8831 53.1663C39.8831 45.2787 32.6784 38.8569 23.8292 38.8569C14.98 38.8569 7.77539 45.2787 7.77539 53.1663ZM37.847 53.1663C37.847 60.0568 31.5597 65.6609 23.8292 65.6609C16.0988 65.6609 9.81149 60.0568 9.81149 53.1663C9.81149 46.2759 16.0988 40.6718 23.8292 40.6718C31.5597 40.6718 37.847 46.2759 37.847 53.1663Z" fill="#DD5928"/>
<path d="M21.8598 44.1418V45.6775C21.0207 45.9567 20.2935 46.3855 19.7118 46.9339C18.8168 47.7815 18.3246 48.9083 18.3246 50.1049C18.3246 50.7431 18.4588 51.3414 18.7273 51.8799C19.0965 52.6278 19.7118 53.2759 20.5844 53.8343C21.2556 54.2532 22.0835 54.642 23.1911 55.021C24.0972 55.35 24.4776 55.6193 24.623 55.7489C24.7349 55.8486 24.7685 55.9184 24.7908 55.9583C24.8132 56.0082 24.8356 56.068 24.8356 56.1877C24.8356 56.3672 24.7797 56.4768 24.6342 56.5766C24.4217 56.7361 24.0525 56.8259 23.6274 56.8259C22.6205 56.8657 21.6808 56.4868 21.1438 56.1677L20.5397 55.8087C20.2823 55.6592 19.9579 55.6193 19.6558 55.699C19.3538 55.7888 19.1189 55.9882 19.0182 56.2575L18.0672 58.6208C17.9106 58.9997 18.0672 59.4285 18.4364 59.6678L18.7832 59.8872C19.3426 60.2461 20.0362 60.5254 20.8417 60.7348C21.1214 60.8046 21.4011 60.8644 21.6919 60.9142V62.2604C21.6919 62.759 22.1506 63.1679 22.71 63.1679H25.3166C25.876 63.1679 26.3347 62.759 26.3347 62.2604V60.665C27.2744 60.3459 28.0799 59.8573 28.6952 59.229C29.5567 58.3515 30.0265 57.2247 30.0265 56.0481C30.0265 55.4298 29.9147 54.8415 29.7021 54.313C29.3888 53.5252 28.8183 52.8272 28.024 52.2389C27.3639 51.7503 26.5473 51.3414 25.4621 50.9425C25.4285 50.9326 25.395 50.9126 25.3614 50.9027C24.265 50.5038 23.8287 50.2445 23.6385 50.1049C23.5714 50.0551 23.5267 50.0052 23.5043 49.9753C23.5043 49.9753 23.4931 49.9354 23.4931 49.8556C23.4931 49.7958 23.5043 49.716 23.5826 49.6562C23.7169 49.5365 24.0077 49.4767 24.3993 49.4667C24.8803 49.4667 25.3278 49.5266 25.753 49.6562C26.0998 49.7559 26.3571 49.8855 26.5696 49.9853L27.1402 50.2744C27.3975 50.4041 27.7107 50.434 27.9904 50.3442C28.2701 50.2545 28.4939 50.0551 28.5945 49.8157L29.579 47.4923C29.758 47.0835 29.579 46.6148 29.1427 46.3855L28.7288 46.1661C28.0464 45.8071 27.2856 45.5578 26.4689 45.3983V44.1219C26.4689 43.6233 26.0103 43.2145 25.4509 43.2145H22.8778C22.3184 43.2145 21.8598 43.6233 21.8598 44.1219V44.1418ZM23.8959 46.3456V45.0493H24.444V46.196C24.444 46.6647 24.8356 47.0536 25.3614 47.1034C26.0998 47.1633 26.771 47.3328 27.3751 47.5921L27.1178 48.2103C26.9053 48.1206 26.6815 48.0308 26.413 47.951C25.7865 47.7616 25.1153 47.6718 24.4105 47.6718C23.4707 47.6718 22.7212 47.9111 22.1842 48.3698C21.7367 48.7587 21.4794 49.2972 21.4794 49.8656C21.4794 50.2146 21.5465 50.4938 21.6919 50.7631C21.8262 51.0323 22.0276 51.2616 22.3184 51.481C22.7771 51.84 23.4931 52.189 24.6566 52.6178C25.574 52.9568 26.234 53.2859 26.7486 53.6549C27.2521 54.0238 27.6101 54.4526 27.8002 54.9412C27.9345 55.2703 28.0016 55.6492 28.0016 56.058C28.0016 56.7959 27.7107 57.5039 27.1738 58.0524C26.6703 58.5709 25.9431 58.9498 25.0929 59.1293C24.6342 59.229 24.321 59.588 24.321 60.0068V61.363H23.7504V60.1365C23.7504 59.6678 23.3477 59.2789 22.8219 59.229C22.352 59.1891 21.8821 59.1094 21.4346 58.9997C20.9871 58.89 20.5956 58.7404 20.2712 58.5709L20.5285 57.9427C21.4682 58.3914 22.5869 58.6407 23.6385 58.6407C24.5783 58.6606 25.3726 58.4114 25.9655 57.9626C26.5584 57.5139 26.8829 56.9056 26.8941 56.1877C26.8941 55.8387 26.8269 55.5395 26.6815 55.2503C26.5473 54.9711 26.3571 54.7119 26.0886 54.4725C25.6299 54.0537 24.9251 53.6848 23.963 53.3358C23.0121 53.0067 22.3184 52.6876 21.7926 52.3585C21.2221 51.9995 20.8417 51.6007 20.618 51.1619C20.4613 50.8528 20.383 50.4938 20.383 50.1149C20.383 49.377 20.6739 48.6989 21.2221 48.1804C21.7031 47.7317 22.3632 47.4026 23.1351 47.2331C23.5938 47.1334 23.9182 46.7744 23.9182 46.3556L23.8959 46.3456Z" fill="#DD5928"/>
</svg>
