<svg width="59" height="76" viewBox="0 0 59 76" fill="none" xmlns="http://www.w3.org/2000/svg">
<path d="M7.72836 62.3154C11.8667 65.1413 16.5745 67.0283 21.7398 67.9312V71.7051C21.7398 74.0706 23.9157 75.9937 26.5797 75.9937H32.5686C35.2428 75.9937 37.4086 74.0706 37.4086 71.7051V67.9402C41.8825 67.2089 45.8581 65.8546 49.2237 63.8864C55.2533 60.3471 58.3749 55.3995 58.5071 49.1878C58.5986 45.2513 57.3378 41.8656 54.7653 39.0938C50.9523 35.058 45.1159 32.4307 37.4086 31.2751V24.8738C37.917 25.1898 38.4254 25.5419 38.9236 25.9211C40.0217 26.7246 41.2927 27.14 42.7163 27.14C43.8957 27.167 45.2176 26.5712 45.4209 26.4809C45.4921 26.4538 45.5531 26.4267 45.6141 26.3906L52.3351 22.6437C54.0637 21.6686 54.4501 20.4046 54.4704 19.5198C54.4907 18.5086 54.0332 17.5787 53.1486 16.8383C49.0305 12.6942 43.733 9.99466 37.4086 8.78483V4.29761C37.4086 1.92309 35.2326 0 32.5686 0H26.5797C23.9056 0 21.7398 1.93212 21.7398 4.29761V8.59523C19.0249 9.01957 16.5135 9.69671 14.2562 10.6086C5.61343 14.1117 1.31239 19.4657 1.46491 26.526C1.53609 29.993 2.72574 33.1169 5.00336 35.7894C8.53163 39.9967 14.1647 42.7504 21.7398 43.9964V53.2146C19.3605 52.1492 17.0625 50.5601 14.8764 48.4655C13.9206 47.3911 12.5886 46.8313 11.0329 46.8313C10.189 46.8313 9.06036 47.2376 8.61298 47.4092C8.58247 47.4182 8.5418 47.4363 8.5113 47.4543C8.49096 47.4633 8.45029 47.4814 8.42995 47.4904L2.32919 50.6685C0.376942 51.6616 -0.0196076 53.043 0.000728247 54.0271C0.0210641 54.9119 0.376942 55.7155 1.05819 56.4197C2.7359 58.4782 4.98302 60.4645 7.72836 62.3244V62.3154ZM3.90522 53.0701L9.93481 49.9281C10.311 49.7837 10.8601 49.6212 11.0329 49.6121C11.6532 49.6121 12.0701 49.7927 12.4361 50.2171C12.4666 50.2532 12.4971 50.2803 12.5276 50.3164C15.7 53.3771 19.1571 55.5078 22.7871 56.6454C23.265 56.7989 23.8039 56.7267 24.2208 56.4739C24.6377 56.212 24.8817 55.7877 24.8817 55.3363V42.8317C24.8817 42.1455 24.3123 41.5586 23.5497 41.4503C16.1373 40.4391 10.7482 37.9743 7.51484 34.1281C5.61343 31.898 4.65765 29.3971 4.60681 26.4899C4.48479 20.5581 8.06391 16.2063 15.5678 13.1727C17.9065 12.2247 20.5908 11.5566 23.5293 11.1955C24.3021 11.0961 24.8817 10.5093 24.8817 9.81409V4.3247C24.8817 3.49407 25.6443 2.81692 26.5797 2.81692H32.5686C33.5041 2.81692 34.2667 3.49407 34.2667 4.3247V9.96757C34.2667 10.6447 34.8158 11.2225 35.5682 11.3399C41.7808 12.297 46.9156 14.7979 50.8404 18.7614C50.8811 18.7975 50.9218 18.8337 50.9625 18.8698C51.2878 19.1316 51.3285 19.3393 51.3285 19.5018C51.3285 19.6462 51.3285 19.9442 50.6574 20.3143L44.0177 24.0161C43.6619 24.1696 43.0213 24.3772 42.7264 24.3772C42.035 24.3772 41.4453 24.1876 40.947 23.8174C39.554 22.743 38.0593 21.8763 36.5036 21.2172C36.0156 21.0095 35.4462 21.0457 34.9886 21.2985C34.5311 21.5513 34.2565 22.0027 34.2565 22.4722V32.4939C34.2565 33.1891 34.8361 33.776 35.6089 33.8753C43.2043 34.8143 48.8374 37.1888 52.3453 40.8995C54.4501 43.1567 55.4364 45.8562 55.3652 49.1517C55.2533 54.4695 52.6707 58.5324 47.4952 61.575C44.1804 63.5072 40.1743 64.7892 35.5987 65.3941C34.8259 65.4934 34.2565 66.0803 34.2565 66.7755V71.7232C34.2565 72.5538 33.4939 73.231 32.5585 73.231H26.5696C25.6341 73.231 24.8715 72.5538 24.8715 71.7232V66.7845C24.8715 66.0984 24.3123 65.5115 23.5497 65.4032C18.3844 64.6718 13.7071 62.8932 9.62977 60.1124C7.09795 58.406 5.0542 56.6003 3.55951 54.7494C3.529 54.7043 3.48833 54.6682 3.45783 54.632C3.18329 54.3612 3.14262 54.1535 3.14262 54C3.14262 53.8195 3.14262 53.4854 3.90522 53.0972V53.0701Z" fill="#DD5928"/>
<path d="M24.8811 22.1924C24.8811 21.7319 24.6269 21.2985 24.1998 21.0367C23.7728 20.7749 23.2237 20.7207 22.7458 20.8923L22.2883 21.0548C22.2883 21.0548 22.2171 21.0819 22.1764 21.0999C18.5363 22.6438 17.7839 24.919 17.794 26.5442C17.8144 28.4402 18.6888 30.9953 22.756 32.3766C22.939 32.4398 23.1322 32.4669 23.3152 32.4669C23.6304 32.4669 23.9355 32.3857 24.1998 32.2231C24.6269 31.9613 24.8811 31.537 24.8811 31.0765V22.1924ZM21.7392 28.5666C21.0681 27.8894 20.9359 27.1581 20.9258 26.5261C20.9258 26.0295 21.0275 25.3704 21.7392 24.7023V28.5666Z" fill="#DD5928"/>
<path d="M34.9987 56.3023C35.2529 56.4467 35.5478 56.5189 35.8426 56.5189C36.0663 56.5189 36.29 56.4738 36.4934 56.3925C36.9509 56.212 37.4797 55.9772 37.9677 55.7064C40.7436 54.1986 42.2281 51.9505 42.2586 49.1968C42.2789 47.0479 41.2621 44.2039 36.3104 42.8135C35.8325 42.6781 35.3139 42.7594 34.9072 43.0212C34.5005 43.283 34.2666 43.6983 34.2666 44.1498V55.1285C34.2666 55.6071 34.5411 56.0495 34.9885 56.3023H34.9987ZM37.4187 46.3166C38.9032 47.1924 39.137 48.2758 39.1269 49.1877C39.1167 50.6052 38.5676 51.7248 37.4187 52.6366V46.3166Z" fill="#DD5928"/>
</svg>
