<svg width="62" height="62" viewBox="0 0 62 62" fill="none" xmlns="http://www.w3.org/2000/svg">
<path d="M2.03439 6.52637H9.22035C10.0617 6.52637 10.7442 7.20959 10.7442 8.05099V9.85096H27.9025C28.306 9.85096 28.6736 10.0077 28.9468 10.2647L30.8683 11.8787V10.1175C30.8683 9.27538 31.5515 8.59289 32.3929 8.59289H51.2574V8.05099C51.2574 7.20959 51.9399 6.52637 52.782 6.52637H59.9673C60.8094 6.52637 61.4919 7.20959 61.4919 8.05099V31.4044C61.4919 32.2458 60.8094 32.9291 59.9673 32.9291H52.782C51.9399 32.9291 51.2574 32.2458 51.2574 31.4044V30.4144H48.8965L50.8825 33.2242C51.2926 33.8078 51.2472 34.6199 50.7338 35.153L36.6321 49.7937C35.9862 50.4579 34.9039 50.4081 34.3327 49.6692L31.2037 45.635L26.9146 48.7992C26.3149 49.2386 25.4676 49.1837 24.9316 48.6381C20.4851 44.1023 16.0387 39.5665 11.5922 35.03C11.0657 34.5386 10.9485 33.7258 11.352 33.0982L12.895 30.6904L10.7442 28.7792V31.4044C10.7442 32.2458 10.0617 32.9291 9.22035 32.9291H2.03439C1.19226 32.9291 0.509766 32.2458 0.509766 31.4044V8.05099C0.509766 7.20959 1.19226 6.52637 2.03439 6.52637ZM21.3038 40.5947L27.8512 34.5123C29.3166 33.1495 31.3889 35.3771 29.9236 36.7399L23.4341 42.7681L26.1758 45.564L30.4999 42.3741L44.8242 27.8719C45.1128 27.5519 45.5228 27.3681 45.9549 27.3681L51.2574 27.3651V11.6421H33.9175V14.4402L37.8609 17.7516C38.2842 18.1061 38.4658 18.6414 38.3889 19.1496L37.858 24.1943C37.776 24.9918 37.0905 25.5827 36.3011 25.5593L31.4292 25.6472C31.0008 25.6538 30.612 25.4831 30.3315 25.2027L26.2014 21.0806L16.0768 31.3656L14.5668 33.7214L16.7746 35.9739L23.0072 30.2005C24.4717 28.8458 26.5324 31.0734 25.0678 32.4282L18.8997 38.1415L21.3038 40.5947ZM45.7601 31.2507L33.5118 43.6512L35.6596 46.4193L47.6692 33.9513L45.7601 31.2507ZM58.4426 9.57562H54.3067V29.8798H58.4426V9.57562ZM27.3511 12.8995H10.7442V24.704L14.8099 28.3186L25.0327 17.9332C25.6068 17.2544 26.6437 17.2112 27.2735 17.841L32.0304 22.5987L34.9735 22.5452L35.2869 19.5655C32.6419 17.3437 29.9961 15.122 27.3511 12.8995ZM7.69572 9.57562H3.55902V29.8798H7.69572V9.57562Z" fill="url(#paint0_linear_659_132)"/>
<defs>
<linearGradient id="paint0_linear_659_132" x1="31.0008" y1="6.52637" x2="31.0008" y2="50.2596" gradientUnits="userSpaceOnUse">
<stop stop-color="#F26F21"/>
<stop offset="1" stop-color="#DC5928"/>
</linearGradient>
</defs>
</svg>
