<svg width="91" height="77" viewBox="0 0 91 77" fill="none" xmlns="http://www.w3.org/2000/svg">
<g clip-path="url(#clip0_443_135)">
<path d="M45.5181 61.484C42.0621 61.484 38.5962 61.484 35.1402 61.484C34.7796 61.484 34.4891 61.4312 34.2186 61.1849C29.3102 56.8297 24.4018 52.4657 19.4833 48.1281C19.0826 47.7762 19.0325 47.4859 19.283 47.0723C21.7171 42.8931 25.4135 40.0337 30.6725 38.9691C36.3723 37.8077 41.3509 39.1978 45.5882 42.6732C46.1692 43.1483 46.7201 43.3946 47.5416 43.3946C51.7688 43.3506 55.9961 43.3858 60.2234 43.3594C61.6959 43.3594 63.0382 43.6146 64.06 44.6264C65.1318 45.691 65.4524 46.9052 64.9014 48.2337C64.3404 49.5887 63.1684 50.3365 61.5657 50.5653C60.6441 50.6972 59.7125 50.6445 58.7809 50.6445C54.7339 50.6445 50.687 50.6445 46.64 50.6445C46.3996 50.6445 46.1492 50.6445 45.9087 50.6621C44.9371 50.7324 44.2559 51.3043 44.2359 52.061C44.2158 52.844 44.8569 53.5127 45.7885 53.6359C46.0089 53.6623 46.2293 53.6623 46.4597 53.6623C51.2579 53.6623 56.0462 53.6887 60.8444 53.6535C63.7594 53.6359 66.0233 52.5185 67.4859 50.2749C68.4275 48.832 68.5677 47.2747 68.0969 45.6822C67.9767 45.2687 68.0869 45.0399 68.4074 44.7672C72.4744 41.3358 76.5314 37.8869 80.5984 34.4467C81.4098 33.7517 82.2012 33.0302 83.0426 32.3791C85.5169 30.4699 89.2934 31.2177 90.4554 33.822C91.0464 35.1506 90.6256 36.5231 89.2733 37.6757C87.4802 39.2154 85.6771 40.7463 83.884 42.286C78.0941 47.2571 72.3642 52.2633 66.5142 57.1728C63.0883 60.0499 58.9512 61.528 54.1529 61.4928C51.278 61.4664 48.403 61.4928 45.5381 61.4928L45.5181 61.484Z" fill="#DD5928"/>
<path d="M21.116 76.3972C20.6452 76.4412 20.3347 76.1861 20.0242 75.9221C17.019 73.265 14.0038 70.6079 10.9886 67.9508C7.62283 64.9858 4.24702 62.0208 0.871218 59.0469C0.740994 58.9326 0.620788 58.8182 0.490564 58.7038C-0.190608 58.0527 -0.180591 57.5776 0.530633 56.9617C2.62423 55.1581 4.72785 53.3632 6.82145 51.5596C8.304 50.275 9.78655 48.9904 11.2591 47.6971C12.2107 46.8612 12.8719 46.8612 13.8335 47.7147C20.0642 53.2664 26.2949 58.827 32.5257 64.3787C32.6258 64.4667 32.726 64.5547 32.8262 64.6427C33.5674 65.3641 33.5775 65.8392 32.8262 66.5431C32.0649 67.2558 31.2635 67.9333 30.4821 68.6283C27.7675 71.0127 25.0528 73.4058 22.3281 75.7902C21.9875 76.0893 21.667 76.4324 21.106 76.406L21.116 76.3972ZM22.0276 65.3993C22.0276 66.5959 23.1896 67.6341 24.5319 67.6165C25.8943 67.5989 27.0062 66.6311 27.0162 65.4433C27.0262 64.2907 25.8742 63.2701 24.5419 63.2613C23.1796 63.2525 22.0276 64.2292 22.0376 65.3993H22.0276Z" fill="#DD5928"/>
<path d="M78.8359 21.39V16.2254H72.1545C71.9842 15.504 71.7438 14.7913 71.4432 14.105L73.1261 13.146L77.0429 10.9288L73.8173 6.60004L69.8906 8.81722L68.1977 9.77624C67.6066 9.24834 66.9555 8.77323 66.2744 8.34211L67.0958 6.74081L68.999 3.01912L63.5897 0.916318L61.6865 4.63801L60.865 6.23931C59.8333 6.03695 58.7614 5.94017 57.6896 5.94017C57.2689 5.94017 56.8481 5.95776 56.4274 5.98416L55.8564 4.30368L54.5342 0.397217L48.8544 1.86654L50.1767 5.773L50.7476 7.45348C49.9863 7.81421 49.2551 8.22773 48.5639 8.69405L47.0313 7.55906L43.4551 4.92836L39.6285 8.87001L43.1947 11.5007L44.7273 12.6357C44.0161 13.7619 43.5152 14.9673 43.2147 16.2166H36.5332V21.3812H43.2147C43.385 22.1027 43.6254 22.8154 43.9359 23.5016L42.253 24.4519L38.3363 26.669L41.5619 30.9978L45.4886 28.7806L47.1815 27.8216C47.7725 28.3495 48.4237 28.8246 49.1048 29.2557L48.2834 30.857L46.3801 34.5787L51.7894 36.6815L53.6927 32.9598L54.5141 31.3585C55.5459 31.5609 56.6177 31.6577 57.6896 31.6577C58.1103 31.6577 58.541 31.6401 58.9518 31.6137L59.5227 33.2942L60.845 37.2006L66.5248 35.7313L65.2025 31.8249L64.6315 30.1444C65.3928 29.7924 66.1241 29.3701 66.8153 28.9038L68.3479 30.0388L71.914 32.6695L75.7406 28.7278L72.1745 26.0971L70.6419 24.9622C71.3531 23.836 71.864 22.6306 72.1545 21.3812H78.8359V21.39ZM63.5797 25.3845C63.149 25.6748 62.6982 25.9388 62.2274 26.1587C61.0554 26.713 59.7932 27.0386 58.4709 27.1266C58.2105 27.1441 57.94 27.1529 57.6896 27.1529C57.0084 27.1529 56.3272 27.0914 55.6661 26.9682C54.3739 26.7218 53.1718 26.2555 52.09 25.578C51.6692 25.3141 51.2685 25.015 50.8979 24.6894C49.9563 23.8624 49.235 22.9034 48.7642 21.83C48.5739 21.4076 48.4236 20.9677 48.3135 20.519C48.1832 19.9647 48.1131 19.3928 48.1131 18.8121C48.1131 18.2314 48.1832 17.6595 48.3135 17.1053C48.5038 16.3134 48.8243 15.5567 49.2651 14.8441C49.8962 13.8323 50.7476 12.9524 51.7995 12.2398C52.2302 11.9494 52.691 11.6855 53.1618 11.4655C54.3338 10.92 55.596 10.5945 56.9183 10.4977C57.1787 10.4801 57.4392 10.4713 57.6996 10.4713C58.3808 10.4713 59.0619 10.5329 59.7231 10.6561C61.0153 10.9024 62.2174 11.3687 63.2992 12.0462C63.72 12.3102 64.1206 12.6093 64.4913 12.9348C65.4329 13.7619 66.1541 14.7209 66.625 15.7943C66.8153 16.2254 66.9655 16.6653 67.0757 17.1053C67.2059 17.6595 67.2761 18.2402 67.2761 18.8121C67.2761 19.384 67.2059 19.9647 67.0757 20.519C66.8854 21.3021 66.5648 22.0675 66.1241 22.7802C65.493 23.8008 64.6315 24.6718 63.5897 25.3845H63.5797Z" fill="#DD5928"/>
<path d="M45.519 61.484C42.0631 61.484 38.5971 61.484 35.1412 61.484C34.7806 61.484 34.4901 61.4312 34.2196 61.1849C29.3112 56.8297 24.4027 52.4657 19.4843 48.1281C19.0836 47.7762 19.0335 47.4859 19.2839 47.0723C21.7181 42.8931 25.4145 40.0337 30.6735 38.9691C36.3733 37.8077 41.3519 39.1978 45.5892 42.6732C46.1702 43.1483 46.7211 43.3946 47.5425 43.3946C51.7698 43.3506 55.9971 43.3858 60.2243 43.3594C61.6969 43.3594 63.0392 43.6146 64.0609 44.6264C65.1328 45.691 65.4533 46.9052 64.9024 48.2337C64.3414 49.5887 63.1694 50.3365 61.5666 50.5653C60.6451 50.6972 59.7135 50.6445 58.7819 50.6445C54.7349 50.6445 50.6879 50.6445 46.641 50.6445C46.4006 50.6445 46.1501 50.6445 45.9097 50.6621C44.9381 50.7324 44.2569 51.3043 44.2368 52.061C44.2168 52.844 44.8579 53.5127 45.7895 53.6359C46.0099 53.6623 46.2303 53.6623 46.4607 53.6623C51.2589 53.6623 56.0472 53.6887 60.8454 53.6535C63.7604 53.6359 66.0243 52.5185 67.4868 50.2749C68.4285 48.832 68.5687 47.2747 68.0979 45.6822C67.9777 45.2687 68.0879 45.0399 68.4084 44.7672C72.4754 41.3358 76.5324 37.8869 80.5994 34.4467C81.4108 33.7517 82.2021 33.0302 83.0436 32.3791C85.5178 30.4699 89.2943 31.2177 90.4563 33.822C91.0473 35.1506 90.6266 36.5231 89.2743 37.6757C87.4812 39.2154 85.6781 40.7463 83.885 42.286C78.0951 47.2571 72.3652 52.2633 66.5152 57.1728C63.0893 60.0499 58.9522 61.528 54.1539 61.4928C51.279 61.4664 48.404 61.4928 45.5391 61.4928L45.519 61.484Z" fill="#DD5928"/>
<path d="M21.117 76.3971C20.6462 76.4411 20.3357 76.186 20.0251 75.922C17.02 73.2649 14.0048 70.6078 10.9896 67.9507C7.62381 64.9857 4.248 62.0207 0.872195 59.0468C0.741971 58.9324 0.621764 58.8181 0.49154 58.7037C-0.189631 58.0526 -0.179614 57.5775 0.531609 56.9616C2.62521 55.1579 4.72883 53.3631 6.82243 51.5594C8.30498 50.2749 9.78753 48.9903 11.2601 47.697C12.2117 46.8611 12.8728 46.8611 13.8345 47.7146C20.0652 53.2663 26.2959 58.8269 32.5266 64.3786C32.6268 64.4666 32.727 64.5546 32.8271 64.6426C33.5684 65.364 33.5784 65.8391 32.8271 66.543C32.0658 67.2557 31.2645 67.9331 30.4831 68.6282C27.7684 71.0125 25.0538 73.4057 22.3291 75.79C21.9885 76.0892 21.668 76.4323 21.107 76.4059L21.117 76.3971ZM22.0286 65.3992C22.0286 66.5958 23.1906 67.634 24.5329 67.6164C25.8952 67.5988 27.0071 66.631 27.0172 65.4432C27.0272 64.2906 25.8752 63.27 24.5429 63.2612C23.1806 63.2524 22.0286 64.229 22.0386 65.3992H22.0286Z" fill="#DD5928"/>
<path d="M78.8359 21.39V16.2254H72.1545C71.9842 15.504 71.7438 14.7913 71.4432 14.105L73.1261 13.146L77.0429 10.9288L73.8173 6.60004L69.8906 8.81722L68.1977 9.77624C67.6066 9.24834 66.9555 8.77323 66.2744 8.34211L67.0958 6.74081L68.999 3.01912L63.5897 0.916318L61.6865 4.63801L60.865 6.23931C59.8333 6.03695 58.7614 5.94017 57.6896 5.94017C57.2689 5.94017 56.8481 5.95776 56.4274 5.98416L55.8564 4.30368L54.5342 0.397217L48.8544 1.86654L50.1767 5.773L50.7476 7.45348C49.9863 7.81421 49.2551 8.22773 48.5639 8.69405L47.0313 7.55906L43.4551 4.92836L39.6285 8.87001L43.1947 11.5007L44.7273 12.6357C44.0161 13.7619 43.5152 14.9673 43.2147 16.2166H36.5332V21.3812H43.2147C43.385 22.1027 43.6254 22.8154 43.9359 23.5016L42.253 24.4519L38.3363 26.669L41.5619 30.9978L45.4886 28.7806L47.1815 27.8216C47.7725 28.3495 48.4237 28.8246 49.1048 29.2557L48.2834 30.857L46.3801 34.5787L51.7894 36.6815L53.6927 32.9598L54.5141 31.3585C55.5459 31.5609 56.6177 31.6577 57.6896 31.6577C58.1103 31.6577 58.541 31.6401 58.9518 31.6137L59.5227 33.2942L60.845 37.2006L66.5248 35.7313L65.2025 31.8249L64.6315 30.1444C65.3928 29.7924 66.1241 29.3701 66.8153 28.9038L68.3479 30.0388L71.914 32.6695L75.7406 28.7278L72.1745 26.0971L70.6419 24.9622C71.3531 23.836 71.864 22.6306 72.1545 21.3812H78.8359V21.39ZM63.5797 25.3845C63.149 25.6748 62.6982 25.9388 62.2274 26.1587C61.0554 26.713 59.7932 27.0386 58.4709 27.1266C58.2105 27.1441 57.94 27.1529 57.6896 27.1529C57.0084 27.1529 56.3272 27.0914 55.6661 26.9682C54.3739 26.7218 53.1718 26.2555 52.09 25.578C51.6692 25.3141 51.2685 25.015 50.8979 24.6894C49.9563 23.8624 49.235 22.9034 48.7642 21.83C48.5739 21.4076 48.4236 20.9677 48.3135 20.519C48.1832 19.9647 48.1131 19.3928 48.1131 18.8121C48.1131 18.2314 48.1832 17.6595 48.3135 17.1053C48.5038 16.3134 48.8243 15.5567 49.2651 14.8441C49.8962 13.8323 50.7476 12.9524 51.7995 12.2398C52.2302 11.9494 52.691 11.6855 53.1618 11.4655C54.3338 10.92 55.596 10.5945 56.9183 10.4977C57.1787 10.4801 57.4392 10.4713 57.6996 10.4713C58.3808 10.4713 59.0619 10.5329 59.7231 10.6561C61.0153 10.9024 62.2174 11.3687 63.2992 12.0462C63.72 12.3102 64.1206 12.6093 64.4913 12.9348C65.4329 13.7619 66.1541 14.7209 66.625 15.7943C66.8153 16.2254 66.9655 16.6653 67.0757 17.1053C67.2059 17.6595 67.2761 18.2402 67.2761 18.8121C67.2761 19.384 67.2059 19.9647 67.0757 20.519C66.8854 21.3021 66.5648 22.0675 66.1241 22.7802C65.493 23.8008 64.6315 24.6718 63.5897 25.3845H63.5797Z" fill="#DD5928"/>
</g>
<defs>
<clipPath id="clip0_443_135">
<rect width="90.696" height="76" fill="white" transform="translate(0 0.406006)"/>
</clipPath>
</defs>
</svg>
