<svg width="37" height="50" viewBox="0 0 37 50" fill="none" xmlns="http://www.w3.org/2000/svg">
<path d="M0 1.78571C0 1.31211 0.162425 0.85791 0.451544 0.523023C0.740663 0.188137 1.13279 0 1.54167 0H35.4583C35.8672 0 36.2593 0.188137 36.5485 0.523023C36.8376 0.85791 37 1.31211 37 1.78571C37 2.25932 36.8376 2.71352 36.5485 3.0484C36.2593 3.38329 35.8672 3.57143 35.4583 3.57143H32.375V7.14286C32.3756 10.1751 31.6357 13.1457 30.2406 15.7115C28.8455 18.2773 26.8522 20.3336 24.4909 21.6429C23.5967 22.1393 23.125 22.9893 23.125 23.75V26.25C23.125 27.0107 23.5998 27.8607 24.4909 28.3571C26.8522 29.6664 28.8455 31.7227 30.2406 34.2885C31.6357 36.8543 32.3756 39.8249 32.375 42.8571V46.4286H35.4583C35.8672 46.4286 36.2593 46.6167 36.5485 46.9516C36.8376 47.2865 37 47.7407 37 48.2143C37 48.6879 36.8376 49.1421 36.5485 49.477C36.2593 49.8119 35.8672 50 35.4583 50H1.54167C1.13279 50 0.740663 49.8119 0.451544 49.477C0.162425 49.1421 0 48.6879 0 48.2143C0 47.7407 0.162425 47.2865 0.451544 46.9516C0.740663 46.6167 1.13279 46.4286 1.54167 46.4286H4.625V42.8571C4.62437 39.8249 5.36434 36.8543 6.75944 34.2885C8.15454 31.7227 10.1478 29.6664 12.5091 28.3571C13.4032 27.8607 13.875 27.0107 13.875 26.25V23.75C13.875 22.9893 13.4002 22.1393 12.5091 21.6429C10.1478 20.3336 8.15454 18.2773 6.75944 15.7115C5.36434 13.1457 4.62437 10.1751 4.625 7.14286V3.57143H1.54167C1.13279 3.57143 0.740663 3.38329 0.451544 3.0484C0.162425 2.71352 0 2.25932 0 1.78571ZM7.70833 3.57143V7.14286C7.70777 9.5015 8.28335 11.8122 9.36856 13.808C10.4538 15.8038 12.0043 17.4032 13.8411 18.4214C15.4845 19.3357 16.9583 21.2464 16.9583 23.7464V26.2536C16.9583 28.7536 15.4845 30.6643 13.8411 31.5786C12.0043 32.5968 10.4538 34.1962 9.36856 36.192C8.28335 38.1878 7.70777 40.4985 7.70833 42.8571V46.4286H29.2917V42.8571C29.2922 40.4985 28.7167 38.1878 27.6314 36.192C26.5462 34.1962 24.9957 32.5968 23.1589 31.5786C21.5155 30.6643 20.0417 28.7571 20.0417 26.2536V23.7464C20.0417 21.2464 21.5155 19.3357 23.1589 18.4214C24.9957 17.4032 26.5462 15.8038 27.6314 13.808C28.7167 11.8122 29.2922 9.5015 29.2917 7.14286V3.57143H7.70833Z" fill="url(#paint0_linear_659_135)"/>
<defs>
<linearGradient id="paint0_linear_659_135" x1="-7.45139" y1="50" x2="18.5" y2="50" gradientUnits="userSpaceOnUse">
<stop stop-color="#F26F21"/>
<stop offset="1" stop-color="#DC5928"/>
</linearGradient>
</defs>
</svg>
