<svg width="17" height="17" viewBox="0 0 17 17" fill="none" xmlns="http://www.w3.org/2000/svg">
<path d="M8.21015 0C10.3869 0.00246275 12.4737 0.868248 14.0129 2.40742C15.552 3.94658 16.4178 6.03343 16.4203 8.21014C16.4213 8.96686 16.3164 9.71999 16.1087 10.4476C16.0994 10.4829 16.0832 10.516 16.061 10.5449C16.0388 10.5739 16.011 10.5981 15.9793 10.6161C15.9476 10.6342 15.9126 10.6457 15.8764 10.65C15.8402 10.6544 15.8035 10.6514 15.7684 10.6413C15.7333 10.6313 15.7006 10.6143 15.6722 10.5914C15.6438 10.5685 15.6203 10.5402 15.603 10.5081C15.5857 10.476 15.575 10.4407 15.5715 10.4044C15.568 10.3681 15.5718 10.3314 15.5827 10.2966C15.7763 9.61806 15.874 8.91577 15.873 8.21014C15.873 6.17784 15.0656 4.22878 13.6286 2.79172C12.1915 1.35467 10.2425 0.547343 8.21015 0.547343C6.17785 0.547343 4.22879 1.35467 2.79174 2.79172C1.35468 4.22878 0.547354 6.17784 0.547354 8.21014C0.546262 8.91576 0.643906 9.61806 0.837446 10.2966C0.848333 10.3314 0.852149 10.3681 0.848671 10.4044C0.845192 10.4407 0.83449 10.476 0.817191 10.5081C0.799891 10.5402 0.776347 10.5685 0.74794 10.5914C0.719532 10.6143 0.686835 10.6313 0.651773 10.6413C0.616711 10.6514 0.579989 10.6544 0.543768 10.65C0.507546 10.6457 0.472555 10.6342 0.440853 10.6161C0.409151 10.5981 0.381376 10.5739 0.359163 10.5449C0.33695 10.516 0.320745 10.4829 0.311504 10.4476C0.103785 9.71999 -0.0010643 8.96685 1.14441e-05 8.21014C0.00247383 6.03343 0.868258 3.94658 2.40743 2.40742C3.94659 0.868248 6.03344 0.00246275 8.21015 0Z" fill="#F37021"/>
<path d="M6.61253 9.19523C5.89702 8.83559 5.32378 8.24508 4.98553 7.51922C4.64728 6.79335 4.5638 5.9746 4.74861 5.19542C4.93342 4.41623 5.3757 3.72218 6.00391 3.22554C6.63211 2.72891 7.4095 2.45874 8.2103 2.45874C9.01111 2.45874 9.78849 2.72891 10.4167 3.22554C11.0449 3.72218 11.4872 4.41623 11.672 5.19542C11.8568 5.9746 11.7733 6.79335 11.4351 7.51922C11.0968 8.24508 10.5236 8.83559 9.80808 9.19523C11.586 9.55812 13.1849 10.5215 14.3366 11.9237C14.545 12.1789 14.6554 12.5001 14.648 12.8294C14.6405 13.1588 14.5157 13.4746 14.296 13.7201C13.5265 14.5703 12.5874 15.2499 11.5392 15.715C10.491 16.1801 9.35704 16.4203 8.2103 16.4203C7.06357 16.4203 5.92956 16.1801 4.88137 15.715C3.83318 15.2499 2.89408 14.5703 2.12459 13.7201C1.90489 13.4746 1.78008 13.1588 1.77263 12.8294C1.76518 12.5001 1.8756 12.1789 2.08398 11.9237C3.23567 10.5215 4.83463 9.55812 6.61253 9.19523Z" fill="#F37021"/>
</svg>
