<svg width="19" height="19" viewBox="0 0 19 19" fill="none" xmlns="http://www.w3.org/2000/svg">
<g clip-path="url(#clip0_744_706)">
<path d="M3.55852 0.38789C4.08586 0.38789 4.6132 0.38086 5.13984 0.38789C6.00328 0.403358 6.59953 0.978469 6.62555 1.83973C6.64564 2.89401 6.81127 3.94045 7.11774 4.94941C7.29774 5.53436 7.19297 6.0455 6.79852 6.52569C6.3232 7.10362 5.88445 7.71247 5.44641 8.32063C5.4153 8.37498 5.39693 8.43567 5.39266 8.49814C5.3884 8.56061 5.39836 8.62324 5.4218 8.6813C6.49688 10.7469 8.0768 12.3155 10.1363 13.3975C10.1995 13.4217 10.2674 13.4312 10.3349 13.4254C10.4024 13.4195 10.4676 13.3985 10.5258 13.3638C11.1523 12.9117 11.7682 12.4441 12.3778 11.9696C12.7997 11.6412 13.2595 11.5477 13.7637 11.6947C14.818 12.0123 15.9105 12.1859 17.0114 12.2107C17.832 12.229 18.4212 12.8364 18.4324 13.6534C18.4479 14.7312 18.4444 15.809 18.4324 16.8875C18.4247 17.7959 17.8052 18.4041 16.8898 18.3886C12.3195 18.3113 8.40024 16.6654 5.18344 13.4172C2.65219 10.8594 1.13484 7.77013 0.613126 4.20697C0.510719 3.44163 0.4539 2.67087 0.44297 1.89879C0.42047 1.01222 1.04695 0.404764 1.94203 0.392109C2.48203 0.38789 3.01992 0.38789 3.55852 0.38789Z" fill="white"/>
</g>
<defs>
<clipPath id="clip0_744_706">
<rect width="18" height="18" fill="white" transform="translate(0.442383 0.387695)"/>
</clipPath>
</defs>
</svg>
