<svg width="18" height="18" viewBox="0 0 18 18" fill="none" xmlns="http://www.w3.org/2000/svg">
<path d="M9.23096 0C7.53002 0 5.86728 0.504387 4.453 1.44938C3.03872 2.39437 1.93643 3.73752 1.28551 5.30898C0.634586 6.88044 0.464275 8.60963 0.796112 10.2779C1.12795 11.9461 1.94703 13.4785 3.14977 14.6813C4.35252 15.884 5.88491 16.7031 7.55316 17.0349C9.22142 17.3668 10.9506 17.1965 12.5221 16.5455C14.0935 15.8946 15.4367 14.7923 16.3817 13.3781C17.3267 11.9638 17.8311 10.301 17.8311 8.60009C17.8311 7.47071 17.6086 6.35239 17.1764 5.30898C16.7442 4.26557 16.1107 3.3175 15.3121 2.51891C14.5135 1.72032 13.5655 1.08684 12.5221 0.654643C11.4787 0.222448 10.3603 0 9.23096 0ZM9.23096 15.4802C7.87021 15.4802 6.54001 15.0767 5.40859 14.3207C4.27717 13.5647 3.39533 12.4902 2.8746 11.233C2.35386 9.97582 2.21761 8.59246 2.48308 7.25786C2.74855 5.92325 3.40381 4.69734 4.36601 3.73515C5.32821 2.77295 6.55412 2.11769 7.88872 1.85222C9.22333 1.58675 10.6067 1.723 11.8638 2.24373C13.121 2.76447 14.1955 3.64631 14.9515 4.77773C15.7075 5.90915 16.111 7.23934 16.111 8.60009C16.111 10.4248 15.3862 12.1748 14.0959 13.465C12.8056 14.7553 11.0557 15.4802 9.23096 15.4802ZM12.671 7.74008H10.091V5.16006C10.091 4.93197 10.0004 4.71322 9.83908 4.55194C9.67779 4.39066 9.45905 4.30005 9.23096 4.30005C9.00287 4.30005 8.78412 4.39066 8.62284 4.55194C8.46156 4.71322 8.37095 4.93197 8.37095 5.16006V7.74008H5.79092C5.56283 7.74008 5.34408 7.83069 5.1828 7.99198C5.02152 8.15326 4.93091 8.37201 4.93091 8.60009C4.93091 8.82818 5.02152 9.04693 5.1828 9.20821C5.34408 9.3695 5.56283 9.4601 5.79092 9.4601H8.37095V12.0401C8.37095 12.2682 8.46156 12.487 8.62284 12.6483C8.78412 12.8095 9.00287 12.9001 9.23096 12.9001C9.45905 12.9001 9.67779 12.8095 9.83908 12.6483C10.0004 12.487 10.091 12.2682 10.091 12.0401V9.4601H12.671C12.8991 9.4601 13.1178 9.3695 13.2791 9.20821C13.4404 9.04693 13.531 8.82818 13.531 8.60009C13.531 8.37201 13.4404 8.15326 13.2791 7.99198C13.1178 7.83069 12.8991 7.74008 12.671 7.74008Z" fill="white"/>
</svg>
